<svg width="60" height="60" viewBox="0 0 58 60" fill="none" xmlns="http://www.w3.org/2000/svg">
  <path d="M58.1923 30.0445C58.1923 45.6847 35.1464 59.3982 19.5062 59.3982C3.8661 59.3982 0.322408 46.7193 0.322408 31.0792C0.322408 15.439 -3.12361 0 12.5165 0C28.1567 0 58.1923 14.4044 58.1923 30.0445Z" fill="#1877F2"/>
  <path d="M36.8831 27.6991H16.8831V36.6991C16.8831 37.4947 17.1992 38.2578 17.7618 38.8204C18.3244 39.383 19.0875 39.6991 19.8831 39.6991H33.8831C34.6788 39.6991 35.4418 39.383 36.0044 38.8204C36.567 38.2578 36.8831 37.4947 36.8831 36.6991V27.6991ZM21.8831 25.6991C21.6179 25.6991 21.3635 25.5937 21.176 25.4062C20.9885 25.2187 20.8831 24.9643 20.8831 24.6991V20.6991C20.8831 20.4339 20.9885 20.1795 21.176 19.992C21.3635 19.8044 21.6179 19.6991 21.8831 19.6991C22.1483 19.6991 22.4027 19.8044 22.5902 19.992C22.7778 20.1795 22.8831 20.4339 22.8831 20.6991V24.6991C22.8831 24.9643 22.7778 25.2187 22.5902 25.4062C22.4027 25.5937 22.1483 25.6991 21.8831 25.6991ZM31.8831 25.6991C31.6179 25.6991 31.3635 25.5937 31.176 25.4062C30.9885 25.2187 30.8831 24.9643 30.8831 24.6991V20.6991C30.8831 20.4339 30.9885 20.1795 31.176 19.992C31.3635 19.8044 31.6179 19.6991 31.8831 19.6991C32.1483 19.6991 32.4027 19.8044 32.5902 19.992C32.7778 20.1795 32.8831 20.4339 32.8831 20.6991V24.6991C32.8831 24.9643 32.7778 25.2187 32.5902 25.4062C32.4027 25.5937 32.1483 25.6991 31.8831 25.6991Z" fill="white"/>
  <path d="M33.8831 21.5152H32.8831V24.5152C32.8831 24.7804 32.7778 25.0348 32.5902 25.2223C32.4027 25.4099 32.1483 25.5152 31.8831 25.5152C31.6179 25.5152 31.3635 25.4099 31.176 25.2223C30.9885 25.0348 30.8831 24.7804 30.8831 24.5152V21.5152H22.8831V24.5152C22.8831 24.7804 22.7778 25.0348 22.5902 25.2223C22.4027 25.4099 22.1483 25.5152 21.8831 25.5152C21.6179 25.5152 21.3635 25.4099 21.176 25.2223C30.9885 25.0348 20.8831 24.7804 20.8831 24.5152V21.5152H19.8831C19.0875 21.5152 18.3244 21.8313 17.7618 22.3939C17.1992 22.9565 16.8831 23.7196 16.8831 24.5152V27.5152H36.8831V24.5152C36.8831 23.7196 36.567 22.9565 36.0044 22.3939C35.4418 21.8313 34.6788 21.5152 33.8831 21.5152Z" fill="white"/>
</svg>